<svg xmlns="http://www.w3.org/2000/svg" width="72" height="30" fill="none"><path fill="#54565A" d="M38.188.66h-2.985v28.562h2.985V.66ZM46.298 9.27h-2.974v19.953h2.974V9.27ZM46.842 3.02a2.033 2.033 0 1 0-4.014-.652 2.033 2.033 0 0 0 4.014.651ZM22.408 24.334A11.885 11.885 0 0 1 15 26.907C8.425 26.918 3.093 21.587 3.093 15c0-2.833.984-5.429 2.628-7.473L3.536 5.332A14.912 14.912 0 0 0 0 15c0 8.285 6.716 15 15 15 3.645 0 6.986-1.297 9.582-3.46l-2.174-2.206Z"/><path fill="#009845" d="M27.035 29.232h4.132l-4.456-4.856A14.951 14.951 0 0 0 30 15c0-8.284-6.716-15-15-15A14.974 14.974 0 0 0 3.535 5.332L5.72 7.527a11.878 11.878 0 0 1 9.29-4.445c6.586 0 11.917 5.332 11.917 11.918 0 3.785-1.762 7.16-4.51 9.333l2.045 2.055.086.097.022.022 2.465 2.725Z"/><path fill="#54565A" d="M67.191 9.269H63.05l-8.597 7.527L54.44.66h-2.974v28.562h2.974v-9.214l8.825 9.214h4.13L56.875 18.548l10.317-9.28ZM71.495 27.816v1.417h-.248v-.973l-.422.973h-.13l-.433-.973v.973h-.248v-1.417h.303l.443 1.039.432-1.039h.303ZM69.776 27.816v.206h-.433v1.211h-.248v-1.211h-.433v-.206h1.114Z"/></svg>